{
	"asset":{
		"generator":"Khronos glTF Blender I/O v4.5.48",
		"version":"2.0"
	},
	"scene":0,
	"scenes":[
		{
			"name":"Scene",
			"nodes":[
				0,
				1,
				2,
				3,
				4,
				5,
				6,
				7,
				8,
				9,
				10,
				11,
				12,
				13,
				14,
				15,
				16,
				17,
				18,
				19
			]
		}
	],
	"nodes":[
		{
			"mesh":0,
			"name":"Switch1",
			"scale":[
				0.7635645270347595,
				1.8357982635498047,
				0.963316023349762
			],
			"translation":[
				28.8925724029541,
				3.2131214141845703,
				-70.1762924194336
			]
		},
		{
			"mesh":1,
			"name":"Plane.003",
			"scale":[
				0.7086589336395264,
				0.8811964988708496,
				0.7189964056015015
			],
			"translation":[
				28.857620239257812,
				1.7708362340927124,
				-70.1860122680664
			]
		},
		{
			"mesh":2,
			"name":"Sphere.028",
			"rotation":[
				0,
				-0.9238795042037964,
				0,
				0.38268351554870605
			],
			"scale":[
				0.49094507098197937,
				0.15167953073978424,
				0.49094507098197937
			],
			"translation":[
				28.837507247924805,
				5.3546977043151855,
				-70.1860122680664
			]
		},
		{
			"mesh":2,
			"name":"Sphere.029",
			"rotation":[
				0,
				-0.9238795042037964,
				0,
				0.38268351554870605
			],
			"scale":[
				0.49094507098197937,
				0.15167953073978424,
				0.49094507098197937
			],
			"translation":[
				28.837507247924805,
				1.2288042306900024,
				-70.1860122680664
			]
		},
		{
			"mesh":3,
			"name":"Plane.004",
			"scale":[
				0.7086589336395264,
				0.8811964988708496,
				0.7189964056015015
			],
			"translation":[
				28.857620239257812,
				1.7708362340927124,
				-70.19169616699219
			]
		},
		{
			"mesh":0,
			"name":"Switch2",
			"rotation":[
				0,
				0.7071067094802856,
				0,
				0.7071068286895752
			],
			"scale":[
				0.7635645270347595,
				1.8357982635498047,
				0.963316023349762
			],
			"translation":[
				78.19296264648438,
				3.2131214141845703,
				41.00920867919922
			]
		},
		{
			"mesh":1,
			"name":"Plane.005",
			"rotation":[
				0,
				0.7071067094802856,
				0,
				0.7071068286895752
			],
			"scale":[
				0.7086589336395264,
				0.8811964988708496,
				0.7189964056015015
			],
			"translation":[
				78.18324279785156,
				1.7708362340927124,
				41.044158935546875
			]
		},
		{
			"mesh":3,
			"name":"Plane.006",
			"rotation":[
				0,
				0.7071067094802856,
				0,
				0.7071068286895752
			],
			"scale":[
				0.7086589336395264,
				0.8811964988708496,
				0.7189964056015015
			],
			"translation":[
				78.17755889892578,
				1.7708362340927124,
				41.044158935546875
			]
		},
		{
			"mesh":2,
			"name":"Sphere.030",
			"rotation":[
				0,
				-0.3826833665370941,
				0,
				0.9238795638084412
			],
			"scale":[
				0.49094507098197937,
				0.15167953073978424,
				0.49094507098197937
			],
			"translation":[
				78.18324279785156,
				5.3546977043151855,
				41.06427764892578
			]
		},
		{
			"mesh":2,
			"name":"Sphere.031",
			"rotation":[
				0,
				-0.3826833665370941,
				0,
				0.9238795638084412
			],
			"scale":[
				0.49094507098197937,
				0.15167953073978424,
				0.49094507098197937
			],
			"translation":[
				78.18324279785156,
				1.2288042306900024,
				41.06427764892578
			]
		},
		{
			"mesh":0,
			"name":"Switch3",
			"rotation":[
				0,
				0.7071067094802856,
				0,
				0.7071068286895752
			],
			"scale":[
				0.7635645270347595,
				1.8357982635498047,
				0.963316023349762
			],
			"translation":[
				-54.271087646484375,
				3.2131214141845703,
				47.37752151489258
			]
		},
		{
			"mesh":1,
			"name":"Plane.007",
			"rotation":[
				0,
				0.7071067094802856,
				0,
				0.7071068286895752
			],
			"scale":[
				0.7086589336395264,
				0.8811964988708496,
				0.7189964056015015
			],
			"translation":[
				-54.28080749511719,
				1.7708362340927124,
				47.412471771240234
			]
		},
		{
			"mesh":3,
			"name":"Plane.008",
			"rotation":[
				0,
				0.7071067094802856,
				0,
				0.7071068286895752
			],
			"scale":[
				0.7086589336395264,
				0.8811964988708496,
				0.7189964056015015
			],
			"translation":[
				-54.28649139404297,
				1.7708362340927124,
				47.412471771240234
			]
		},
		{
			"mesh":2,
			"name":"Sphere.008",
			"rotation":[
				0,
				-0.3826833665370941,
				0,
				0.9238795638084412
			],
			"scale":[
				0.49094507098197937,
				0.15167953073978424,
				0.49094507098197937
			],
			"translation":[
				-54.28080749511719,
				5.3546977043151855,
				47.43259048461914
			]
		},
		{
			"mesh":2,
			"name":"Sphere.032",
			"rotation":[
				0,
				-0.3826833665370941,
				0,
				0.9238795638084412
			],
			"scale":[
				0.49094507098197937,
				0.15167953073978424,
				0.49094507098197937
			],
			"translation":[
				-54.28080749511719,
				1.2288042306900024,
				47.43259048461914
			]
		},
		{
			"mesh":0,
			"name":"Switch4",
			"rotation":[
				0,
				0.7071067094802856,
				0,
				0.7071068286895752
			],
			"scale":[
				0.7635645270347595,
				1.8357982635498047,
				0.963316023349762
			],
			"translation":[
				-69.40634155273438,
				3.2131214141845703,
				-35.0412712097168
			]
		},
		{
			"mesh":1,
			"name":"Plane.009",
			"rotation":[
				0,
				0.7071067094802856,
				0,
				0.7071068286895752
			],
			"scale":[
				0.7086589336395264,
				0.8811964988708496,
				0.7189964056015015
			],
			"translation":[
				-69.41606140136719,
				1.7708362340927124,
				-35.00632095336914
			]
		},
		{
			"mesh":3,
			"name":"Plane.010",
			"rotation":[
				0,
				0.7071067094802856,
				0,
				0.7071068286895752
			],
			"scale":[
				0.7086589336395264,
				0.8811964988708496,
				0.7189964056015015
			],
			"translation":[
				-69.4217529296875,
				1.7708362340927124,
				-35.00632095336914
			]
		},
		{
			"mesh":2,
			"name":"Sphere.009",
			"rotation":[
				0,
				-0.3826833665370941,
				0,
				0.9238795638084412
			],
			"scale":[
				0.49094507098197937,
				0.15167953073978424,
				0.49094507098197937
			],
			"translation":[
				-69.41606140136719,
				5.3546977043151855,
				-34.986202239990234
			]
		},
		{
			"mesh":2,
			"name":"Sphere.033",
			"rotation":[
				0,
				-0.3826833665370941,
				0,
				0.9238795638084412
			],
			"scale":[
				0.49094507098197937,
				0.15167953073978424,
				0.49094507098197937
			],
			"translation":[
				-69.41606140136719,
				1.2288042306900024,
				-34.986202239990234
			]
		}
	],
	"materials":[
		{
			"doubleSided":true,
			"name":"16.2",
			"pbrMetallicRoughness":{
				"baseColorFactor":[
					0.800000011920929,
					0.800000011920929,
					0.800000011920929,
					1
				],
				"metallicFactor":0,
				"roughnessFactor":0.5
			}
		},
		{
			"doubleSided":true,
			"name":"16.3",
			"pbrMetallicRoughness":{
				"baseColorFactor":[
					0.800000011920929,
					0.800000011920929,
					0.800000011920929,
					1
				],
				"metallicFactor":0,
				"roughnessFactor":0.5
			}
		},
		{
			"doubleSided":true,
			"name":"16.1",
			"pbrMetallicRoughness":{
				"baseColorFactor":[
					0.800000011920929,
					0.800000011920929,
					0.800000011920929,
					1
				],
				"metallicFactor":0,
				"roughnessFactor":0.5
			}
		}
	],
	"meshes":[
		{
			"name":"Cube.005",
			"primitives":[
				{
					"attributes":{
						"POSITION":0,
						"NORMAL":1,
						"TEXCOORD_0":2
					},
					"indices":3,
					"material":0
				}
			]
		},
		{
			"name":"Plane.004",
			"primitives":[
				{
					"attributes":{
						"POSITION":4,
						"NORMAL":5,
						"TEXCOORD_0":6
					},
					"indices":7,
					"material":1
				}
			]
		},
		{
			"name":"Sphere.004",
			"primitives":[
				{
					"attributes":{
						"POSITION":8,
						"NORMAL":9,
						"TEXCOORD_0":10
					},
					"indices":11,
					"material":2
				}
			]
		},
		{
			"name":"Plane.005",
			"primitives":[
				{
					"attributes":{
						"POSITION":12,
						"NORMAL":13,
						"TEXCOORD_0":14
					},
					"indices":15,
					"material":1
				}
			]
		}
	],
	"accessors":[
		{
			"bufferView":0,
			"componentType":5126,
			"count":96,
			"max":[
				0.453710675239563,
				0.839506208896637,
				0.4887940287590027
			],
			"min":[
				-0.4537106454372406,
				-0.839506208896637,
				-0.48879414796829224
			],
			"type":"VEC3"
		},
		{
			"bufferView":1,
			"componentType":5126,
			"count":96,
			"type":"VEC3"
		},
		{
			"bufferView":2,
			"componentType":5126,
			"count":96,
			"type":"VEC2"
		},
		{
			"bufferView":3,
			"componentType":5123,
			"count":144,
			"type":"SCALAR"
		},
		{
			"bufferView":4,
			"componentType":5126,
			"count":7380,
			"max":[
				1.1680041551589966,
				3.0484983921051025,
				1.1682932376861572
			],
			"min":[
				-1.1677378416061401,
				0.2078094482421875,
				-1.168218731880188
			],
			"type":"VEC3"
		},
		{
			"bufferView":5,
			"componentType":5126,
			"count":7380,
			"type":"VEC3"
		},
		{
			"bufferView":6,
			"componentType":5126,
			"count":7380,
			"type":"VEC2"
		},
		{
			"bufferView":7,
			"componentType":5123,
			"count":11520,
			"type":"SCALAR"
		},
		{
			"bufferView":8,
			"componentType":5126,
			"count":7936,
			"max":[
				4.3605146408081055,
				3.2545344829559326,
				4.360515594482422
			],
			"min":[
				-4.374929904937744,
				-3.2810823917388916,
				-4.3749308586120605
			],
			"type":"VEC3"
		},
		{
			"bufferView":9,
			"componentType":5126,
			"count":7936,
			"type":"VEC3"
		},
		{
			"bufferView":10,
			"componentType":5126,
			"count":7936,
			"type":"VEC2"
		},
		{
			"bufferView":11,
			"componentType":5123,
			"count":11520,
			"type":"SCALAR"
		},
		{
			"bufferView":12,
			"componentType":5126,
			"count":3698,
			"max":[
				0.9011193513870239,
				1.6582436561584473,
				0.9016469717025757
			],
			"min":[
				-0.901645302772522,
				1.5980641841888428,
				-0.9017118811607361
			],
			"type":"VEC3"
		},
		{
			"bufferView":13,
			"componentType":5126,
			"count":3698,
			"type":"VEC3"
		},
		{
			"bufferView":14,
			"componentType":5126,
			"count":3698,
			"type":"VEC2"
		},
		{
			"bufferView":15,
			"componentType":5123,
			"count":5760,
			"type":"SCALAR"
		}
	],
	"bufferViews":[
		{
			"buffer":0,
			"byteLength":1152,
			"byteOffset":0,
			"target":34962
		},
		{
			"buffer":0,
			"byteLength":1152,
			"byteOffset":1152,
			"target":34962
		},
		{
			"buffer":0,
			"byteLength":768,
			"byteOffset":2304,
			"target":34962
		},
		{
			"buffer":0,
			"byteLength":288,
			"byteOffset":3072,
			"target":34963
		},
		{
			"buffer":0,
			"byteLength":88560,
			"byteOffset":3360,
			"target":34962
		},
		{
			"buffer":0,
			"byteLength":88560,
			"byteOffset":91920,
			"target":34962
		},
		{
			"buffer":0,
			"byteLength":59040,
			"byteOffset":180480,
			"target":34962
		},
		{
			"buffer":0,
			"byteLength":23040,
			"byteOffset":239520,
			"target":34963
		},
		{
			"buffer":0,
			"byteLength":95232,
			"byteOffset":262560,
			"target":34962
		},
		{
			"buffer":0,
			"byteLength":95232,
			"byteOffset":357792,
			"target":34962
		},
		{
			"buffer":0,
			"byteLength":63488,
			"byteOffset":453024,
			"target":34962
		},
		{
			"buffer":0,
			"byteLength":23040,
			"byteOffset":516512,
			"target":34963
		},
		{
			"buffer":0,
			"byteLength":44376,
			"byteOffset":539552,
			"target":34962
		},
		{
			"buffer":0,
			"byteLength":44376,
			"byteOffset":583928,
			"target":34962
		},
		{
			"buffer":0,
			"byteLength":29584,
			"byteOffset":628304,
			"target":34962
		},
		{
			"buffer":0,
			"byteLength":11520,
			"byteOffset":657888,
			"target":34963
		}
	],
	"buffers":[
		{
			"byteLength":669408,
			"uri":"data:application/octet-stream;base64,"
		}
	]
}
